<?xml version="1.0" encoding="utf-8"?>
<!-- Generator: Adobe Illustrator 23.1.0, SVG Export Plug-In . SVG Version: 6.00 Build 0)  -->
<svg version="1.1" id="图层_1" xmlns="http://www.w3.org/2000/svg" xmlns:xlink="http://www.w3.org/1999/xlink" x="0px" y="0px"
	 viewBox="0 0 200 200" style="enable-background:new 0 0 200 200;" xml:space="preserve">
<style type="text/css">
	.st0{fill:#DBBC3A;}
</style>
<path class="st0" d="M26.7,57.4c-2.3,0-4.1-0.8-5.8-2.3c-1.5-1.4-2.4-3.2-2.4-5.3V32.8c0-2.1,0.8-3.9,2.4-5.4
	c1.5-1.5,3.5-2.3,5.8-2.3h103.8c2.3,0,4.1,0.8,5.8,2.3c1.7,1.5,2.4,3.3,2.4,5.4V50c0,2-0.8,3.8-2.4,5.3c-1.5,1.5-3.5,2.3-5.8,2.3
	H26.7V57.4z M26.7,99.5c-2.3,0-4.1-0.8-5.8-2.3c-1.5-1.4-2.4-3.3-2.4-5.4V74.7c0-2,0.8-3.8,2.4-5.3c1.5-1.5,3.5-2.3,5.8-2.3h103.8
	c2.3,0,4.1,0.8,5.8,2.3c1.7,1.5,2.4,3.2,2.4,5.3v17.3c0,2.1-0.8,3.9-2.4,5.4c-1.5,1.5-3.5,2.3-5.8,2.3H26.7V99.5z M82.1,120.4
	c-7,1.8-13.3,5.3-18.5,10.1c-5.3,5-8,11.2-8.3,18.8c-0.3,7.7,2.3,16,7.6,25.3H26.1c-3.6,0-6.1-2.3-7.1-7v-51.2
	c0-3.8,2.4-6.2,7.1-7.1l63.1,0.2C86.4,111.2,83.9,114.9,82.1,120.4L82.1,120.4z M36,32.8c-2.3,0-4.1,0.8-5.6,2.3
	c-1.5,1.5-2.3,3.5-2.3,5.6c0,2.1,0.8,3.9,2.3,5.4s3.5,2.3,5.6,2.3s3.9-0.8,5.4-2.3s2.3-3.3,2.3-5.4c0-2.3-0.8-4.1-2.3-5.6
	C40,33.7,38.1,32.8,36,32.8z M36,75.3c-2.3,0-4.1,0.8-5.6,2.3s-2.3,3.5-2.3,5.6s0.8,3.9,2.3,5.4c1.5,1.5,3.5,2.3,5.6,2.3
	s3.9-0.8,5.4-2.3c1.5-1.5,2.3-3.5,2.3-5.6s-0.8-3.9-2.3-5.4C40,76.2,38.1,75.3,36,75.3z M166.1,133.6c10.3,5.1,15.4,12.3,15.4,21
	c0,8.9-5.1,15.4-15.6,19.5H80.8c-10.9-5.6-16.2-13.5-16.2-23.6c0-10.1,3.5-16.3,10.4-18.6c7-2.3,12.1-3,15.3-2.1
	c0.5-9.1,4.1-14.5,10.6-16.2c8-0.8,13.8,0.6,17.6,4.1c10.9-9.8,21.6-12.9,32.1-8.8C161.3,113,166.4,121.1,166.1,133.6L166.1,133.6z"
	/>
</svg>
