<?xml version="1.0" encoding="utf-8"?>
<svg version="1.1" id="图层_1" xmlns="http://www.w3.org/2000/svg" xmlns:xlink="http://www.w3.org/1999/xlink" x="0px" y="0px"
	 viewBox="0 0 200 200" style="enable-background:new 0 0 200 200;" xml:space="preserve">
<path fill="#494949" d="M165,20.5h-30c-2.7,0-5,2.2-5,5V86L38.7,21.7l-1.7-1.2c-2.5-1.1-5.5,0.1-6.5,2.7C30.2,23.7,30,24.4,30,25v150.1
	c0,2.8,2.2,5,5,5c0.7,0,1.3-0.1,1.9-0.4l1.7-1.2l91.3-64.3v60.4c0,2.7,2.2,5,5,5h30c2.7,0,5-2.2,5-5V25.5
	C170,22.8,167.7,20.5,165,20.5z"/>
</svg>
