<?xml version="1.0" encoding="utf-8"?>
<svg version="1.1" xmlns="http://www.w3.org/2000/svg" xmlns:xlink="http://www.w3.org/1999/xlink" x="0px" y="0px"
	 viewBox="0 0 205.7 200" style="enable-background:new 0 0 205.7 200;" xml:space="preserve">
<path fill="#E56A9C" d="M103.4,71.1c8.6,0,17.2,3.8,22.9,9.5c0,0,9.7,7.8,9.5,23.8c-0.1,8.6-3.8,17.2-9.5,22.9
	c-5.7,5.7-14.3,9.5-22.9,9.5c-9.5,0-17.2-3.8-22.9-9.5c-6.7-5.7-10.5-14.3-10.5-22.9c0-9.5,3.8-18.1,10.5-23.8
	C86.3,74.9,93.9,71.1,103.4,71.1z M118.8,87.8c-3.8-3.8-9.7-6.2-15.4-6.2c-6.7,0-11.4,2.9-16.2,6.7c-3.8,3.8-6.7,9.5-6.7,16.2
	c0,5.7,2.9,11.4,6.7,15.3c4.8,3.8,9.5,6.7,16.2,6.7c5.7,0,11.4-2.9,15.3-6.7c4.8-3.8,6.7-9.5,6.7-15.3c0-6.7-0.8-9.9-4.6-14.7
	 M131.1,182.7c8.6,1,17.2-1.9,23.8-6.7c7.6-5.7,12.4-13.4,14.3-21c1.9-8.6,1-17.2-2.9-24.8c-1.9-2.9,0-5.7,1.9-7.6
	c8.6-3.8,14.3-9.5,18.1-17.2c3.8-7.6,4.8-16.2,1.9-24.8c-1.9-8.6-7.6-16.2-14.3-21c-7.6-3.8-16.2-6.7-24.8-5.7
	c-2.9,1-5.7-1.9-5.7-4.8c-1-8.6-4.8-16.2-10.5-22.9c-5.7-5.7-13.4-9.5-21.9-10.5h-5.7c-8.6,0-17.2,3.8-22.9,10.5
	C76.7,32,72,39.7,72,49.2l0,0c-0.2,1.3-0.6,5.6-0.9,6.6c-1,2.9-3.8,3.8-6.7,2.9c-1.9,0-2.9-1-4.8-1c-8.6-1.9-17.2-1-24.8,2.9
	c-7.6,3.8-13.4,10.5-17.2,19.1c0,1.9-1,2.9-1,4.8c-1.9,8.6-1,18.1,2.9,24.8c4.8,7.6,10.5,13.4,19.1,17.2c2.9,1,3.8,3.8,2.9,6.7
	c-3.8,8.6-3.8,17.2-1.9,24.8c1.9,8.6,7.6,15.3,14.3,20h1c6.7,5.7,15.3,6.7,23.8,5.7c8.6-0.9,16.2-4.8,21.9-11.4h1
	c1.9-1.9,4.8-1.9,6.7,0C114.9,177.9,122.5,181.7,131.1,182.7L131.1,182.7z"/>
</svg>
