<?xml version="1.0" encoding="utf-8"?>
<!-- Generator: Adobe Illustrator 23.1.0, SVG Export Plug-In . SVG Version: 6.00 Build 0)  -->
<svg version="1.1" xmlns="http://www.w3.org/2000/svg" xmlns:xlink="http://www.w3.org/1999/xlink" x="0px" y="0px"
	 viewBox="0 0 200 200" style="enable-background:new 0 0 200 200;" xml:space="preserve">
<path fill="#DBBC3A" d="M136.5,12.6c-28.2,0-51,22.8-51.1,50.9c0,0,0,0.1,0,0.1c0,6.3,1.2,12.6,3.4,18.4l-47.2,47.2
	c-16.1,0-29.1,13.1-29.1,29.2c0,16.1,13.1,29.1,29.2,29.1c16.1,0,29.1-13.1,29.1-29.1l47.2-47.2c5.9,2.3,12.1,3.5,18.4,3.5
	c28.2,0,51.1-22.9,51.1-51.1c0-6.3-1.2-12.5-3.5-18.4l-25.7,25.7h-29.2V41.8l25.8-25.7C149.1,13.8,142.8,12.6,136.5,12.6z
	 M41.7,143.8c8,0,14.5,6.6,14.5,14.6c0,8-6.6,14.5-14.6,14.5c-8,0-14.5-6.5-14.5-14.6c-0.1-8,6.4-14.5,14.3-14.6
	C41.5,143.7,41.6,143.7,41.7,143.8z"/>
</svg>
