<?xml version="1.0" encoding="utf-8"?>
<svg version="1.1" xmlns="http://www.w3.org/2000/svg" xmlns:xlink="http://www.w3.org/1999/xlink" x="0px" y="0px"
	 viewBox="0 0 200 200" style="enable-background:new 0 0 200 200;" xml:space="preserve">
<path fill="#629ADD" d="M162.2,44.4h-33.9L143,30.7c2.2-2.2,2.2-5.7,0-7.8c-1.1-1.1-2.6-1.7-4.3-1.7c-1.5,0-3,0.6-4.3,1.7l-23,21.5
	H89.1L66.1,23c-1.1-1.1-2.6-1.7-4.3-1.7c-1.5,0-3,0.6-4.3,1.7c-2.2,2.2-2.2,5.7,0,7.8l14.6,13.7H37.8c-14.8,0-26.7,13.3-26.7,30v65
	c0,16.7,11.9,30,26.7,30h8.3c0,5,4.4,9.3,9.8,9.3s9.8-4.1,9.8-9.3h69.1c0,5,4.4,9.3,9.8,9.3c5.4,0,9.8-4.1,9.8-9.3h7.6
	c14.8,0,26.7-13.5,26.7-30v-65C188.9,57.8,177,44.4,162.2,44.4z M136.5,112.2l-53.3,31.1c-4.4,2.6-8.1,0.6-8.1-4.8V76.1
	c0-5.2,3.7-7.4,8.1-4.8l53.3,31.3C140.9,105.4,140.9,109.4,136.5,112.2z"/>
</svg>
